<?xml version="1.0" encoding="utf-8"?>
<!-- Generator: Adobe Illustrator 21.0.1, SVG Export Plug-In . SVG Version: 6.00 Build 0)  -->
<svg version="1.1" id="Layer_1" xmlns="http://www.w3.org/2000/svg" xmlns:xlink="http://www.w3.org/1999/xlink" x="0px" y="0px"
	 width="240px" height="355px" viewBox="0 0 240 355" style="enable-background:new 0 0 240 355;" xml:space="preserve">
<style type="text/css">
	.st0{opacity:0.2;fill:#FFFFFF;enable-background:new    ;}
</style>
<path id="Rectangle-8-Copy-2" class="st0" d="M2,0h236c1.1,0,2,0.9,2,2v321c0,1.1-0.9,2-2,2H2c-1.1,0-2-0.9-2-2V2C0,0.9,0.9,0,2,0z"
	/>
<circle class="st0" cx="25.5" cy="26.5" r="11.5"/>
<ellipse class="st0" cx="19.1" cy="309.1" rx="5.1" ry="5.1"/>
<path class="st0" d="M45,19c0-1.1,0.9-2,2-2h91c1.1,0,2,0.9,2,2v3c0,1.1-0.9,2-2,2H47c-1.1,0-2-0.9-2-2V19z"/>
<path class="st0" d="M45,32c0-1.1,0.9-2,2-2h36c1.1,0,2,0.9,2,2v1c0,1.1-0.9,2-2,2H47c-1.1,0-2-0.9-2-2V32z"/>
<path class="st0" d="M14,144c0-1.1,0.9-2,2-2h186c1.1,0,2,0.9,2,2v8c0,1.1-0.9,2-2,2H16c-1.1,0-2-0.9-2-2V144z"/>
<path class="st0" d="M14,163c0-1.1,0.9-2,2-2h56c1.1,0,2,0.9,2,2v8c0,1.1-0.9,2-2,2H16c-1.1,0-2-0.9-2-2V163z"/>
<path class="st0" d="M16,189c0-0.6,0.4-1,1-1h194c0.6,0,1,0.4,1,1c0,0.6-0.4,1-1,1H17C16.5,190,16,189.6,16,189z"/>
<path class="st0" d="M16,222c0-0.6,0.4-1,1-1h174c0.6,0,1,0.4,1,1c0,0.6-0.4,1-1,1H17C16.4,223,16,222.6,16,222z"/>
<path class="st0" d="M16,233c0-0.6,0.4-1,1-1h38c0.6,0,1,0.4,1,1c0,0.6-0.4,1-1,1H17C16.5,234,16,233.6,16,233z"/>
<path class="st0" d="M16,200c0-0.6,0.5-1,1-1h204c0.6,0,1,0.4,1,1c0,0.6-0.5,1-1,1H17C16.4,201,16,200.6,16,200z"/>
<path class="st0" d="M16,211c0-0.6,0.5-1,1-1h204c0.6,0,1,0.4,1,1c0,0.6-0.5,1-1,1H17C16.4,212,16,211.6,16,211z"/>
<path class="st0" d="M132.5,69h-24.9c-1.1,0-2,0.9-2,2v25c0,1.1,0.9,2,2,2h24.9c1.1,0,2-0.9,2-2V71C134.5,69.9,133.6,69,132.5,69z
	 M122.8,75.3c1.3,0,2.3,1.1,2.3,2.4s-1.1,2.4-2.3,2.4s-2.3-1.1-2.3-2.4S121.5,75.3,122.8,75.3z M132.2,94.9h-24.2v-5l8.2-7.7
	l5.1,3.3l6.8-7l4.1,3.1V94.9z"/>
<g id="Group-4" transform="translate(105.000000, 69.000000)">
</g>
</svg>
