<?xml version="1.0" encoding="utf-8"?>
<!-- Generator: Adobe Illustrator 21.0.1, SVG Export Plug-In . SVG Version: 6.00 Build 0)  -->
<svg version="1.1" id="Layer_1" xmlns="http://www.w3.org/2000/svg" xmlns:xlink="http://www.w3.org/1999/xlink" x="0px" y="0px"
	 width="240px" height="355px" viewBox="0 0 240 355" style="enable-background:new 0 0 240 355;" xml:space="preserve">
<style type="text/css">
	.st0{opacity:0.2;fill:#FFFFFF;enable-background:new    ;}
</style>
<path id="Rectangle-8-Copy-4" class="st0" d="M2,0h236c1.1,0,2,0.9,2,2v321c0,1.1-0.9,2-2,2H2c-1.1,0-2-0.9-2-2V2C0,0.9,0.9,0,2,0z"
	/>
<path class="st0" d="M99.4,87.3l6.8-7.8l7,14.9c0.3,0.5,1,0.7,1.4,0.3l40.2-35.6c0.8,1.2,2.2,1.9,3.7,1.9c1.2,0,2.2-0.4,3-1.2
	l15.6,17.4c0.1,0.1,0.3,0.2,0.5,0.3l30,6.7c0,0,1.1,0.6,1.5-0.4c0.4-1-1.2-1.4-1.2-1.4l-29.7-6.7l-15.7-17.5
	c0.3-0.6,0.4-1.2,0.4-1.9c0-2.5-2-4.5-4.5-4.5s-4.5,2-4.5,4.5c0,0.3,0,0.6,0.1,0.8l-39.8,35.2l-7.1-15.1c-0.3-0.6-1.1-0.7-1.5-0.2
	l-7.5,8.7c-0.8-0.6-1.7-0.9-2.7-0.9c-1.4,0-2.7,0.7-3.5,1.7l-15.1-8.2c-0.3-0.1-52.3,27.8-52.3,27.8c-0.4,0.2-0.6,0.8-0.4,1.2
	c0.2,0.4,0.8,0.6,1.2,0.4l51.1-27.5l14.8,8c-0.1,0.4-0.1,0.8-0.1,1.2c0,2.5,2,4.5,4.5,4.5s4.5-2,4.5-4.5
	C100,88.7,99.8,87.9,99.4,87.3z"/>
<circle class="st0" cx="25.5" cy="26.5" r="11.5"/>
<ellipse class="st0" cx="19.1" cy="309.1" rx="5.1" ry="5.1"/>
<ellipse class="st0" cx="39.1" cy="309.1" rx="5.1" ry="5.1"/>
<path class="st0" d="M45,19c0-1.1,0.9-2,2-2h101c1.1,0,2,0.9,2,2v3c0,1.1-0.9,2-2,2H47c-1.1,0-2-0.9-2-2V19z"/>
<path class="st0" d="M45,32c0-1.1,0.9-2,2-2h26c1.1,0,2,0.9,2,2v1c0,1.1-0.9,2-2,2H47c-1.1,0-2-0.9-2-2V32z"/>
<path class="st0" d="M14,144c0-1.1,0.9-2,2-2h172c1.1,0,2,0.9,2,2v8c0,1.1-0.9,2-2,2H16c-1.1,0-2-0.9-2-2V144z"/>
<path class="st0" d="M14,163c0-1.1,0.9-2,2-2h154c1.1,0,2,0.9,2,2v8c0,1.1-0.9,2-2,2H16c-1.1,0-2-0.9-2-2V163z"/>
<path class="st0" d="M14,182c0-1.1,0.9-2,2-2h136.2c1.1,0,2,0.9,2,2v8c0,1.1-0.9,2-2,2H16c-1.1,0-2-0.9-2-2V182z"/>
<path class="st0" d="M16,210c0-0.6,0.4-1,1-1h194c0.6,0,1,0.4,1,1c0,0.6-0.4,1-1,1H17C16.5,211,16,210.6,16,210z"/>
<path class="st0" d="M16,243c0-0.6,0.4-1,1-1h194c0.6,0,1,0.4,1,1c0,0.6-0.4,1-1,1H17C16.5,244,16,243.6,16,243z"/>
<path class="st0" d="M16,254c0-0.6,0.4-1,1-1h78c0.6,0,1,0.4,1,1c0,0.6-0.4,1-1,1H17C16.4,255,16,254.6,16,254z"/>
<path class="st0" d="M16,221c0-0.6,0.5-1,1-1h204c0.6,0,1,0.4,1,1c0,0.6-0.5,1-1,1H17C16.4,222,16,221.6,16,221z"/>
<path class="st0" d="M16,232c0-0.6,0.5-1,1-1h204c0.6,0,1,0.4,1,1c0,0.6-0.5,1-1,1H17C16.4,233,16,232.6,16,232z"/>
</svg>
