<?xml version="1.0" encoding="utf-8"?>
<!-- Generator: Adobe Illustrator 21.0.1, SVG Export Plug-In . SVG Version: 6.00 Build 0)  -->
<svg version="1.1" id="Layer_1" xmlns="http://www.w3.org/2000/svg" xmlns:xlink="http://www.w3.org/1999/xlink" x="0px" y="0px"
	 width="240px" height="355px" viewBox="0 0 240 355" style="enable-background:new 0 0 240 355;" xml:space="preserve">
<style type="text/css">
	.st0{opacity:0.2;fill:#FFFFFF;enable-background:new    ;}
</style>
<title>zest-article_3</title>
<desc>Created with Sketch.</desc>
<path id="Rectangle-8-Copy-2" class="st0" d="M2,0h236c1.1,0,2,0.9,2,2v321c0,1.1-0.9,2-2,2H2c-1.1,0-2-0.9-2-2V2C0,0.9,0.9,0,2,0z"
	/>
<circle class="st0" cx="25.5" cy="26.5" r="11.5"/>
<ellipse class="st0" cx="19.1" cy="309.1" rx="5.1" ry="5.1"/>
<path class="st0" d="M45,19c0-1.1,0.9-2,2-2h81c1.1,0,2,0.9,2,2v3c0,1.1-0.9,2-2,2H47c-1.1,0-2-0.9-2-2V19z"/>
<path class="st0" d="M45,32c0-1.1,0.9-2,2-2h56c1.1,0,2,0.9,2,2v1c0,1.1-0.9,2-2,2H47c-1.1,0-2-0.9-2-2V32z"/>
<path class="st0" d="M14,144c0-1.1,0.9-2,2-2h186c1.1,0,2,0.9,2,2v8c0,1.1-0.9,2-2,2H16c-1.1,0-2-0.9-2-2V144z"/>
<path class="st0" d="M14,163c0-1.1,0.9-2,2-2h110c1.1,0,2,0.9,2,2v8c0,1.1-0.9,2-2,2H16c-1.1,0-2-0.9-2-2V163z"/>
<path class="st0" d="M16,189c0-0.6,0.4-1,1-1h194c0.6,0,1,0.4,1,1c0,0.6-0.4,1-1,1H17C16.5,190,16,189.6,16,189z"/>
<path class="st0" d="M16,222c0-0.6,0.4-1,1-1h174c0.6,0,1,0.4,1,1c0,0.6-0.4,1-1,1H17C16.4,223,16,222.6,16,222z"/>
<path class="st0" d="M16,233c0-0.6,0.4-1,1-1h38c0.6,0,1,0.4,1,1c0,0.6-0.4,1-1,1H17C16.5,234,16,233.6,16,233z"/>
<path class="st0" d="M16,200c0-0.6,0.5-1,1-1h204c0.6,0,1,0.4,1,1c0,0.6-0.5,1-1,1H17C16.4,201,16,200.6,16,200z"/>
<path class="st0" d="M16,211c0-0.6,0.5-1,1-1h204c0.6,0,1,0.4,1,1c0,0.6-0.5,1-1,1H17C16.4,212,16,211.6,16,211z"/>
<path class="st0" d="M139.1,79.8c0.6,1.9,0.9,3.7,0.9,5.8c0,8.5-5.3,15.7-12.7,18.7L121.5,87L139.1,79.8L139.1,79.8z"/>
<path class="st0" d="M138.6,77.5c-3-7.1-9.5-11.4-17.6-11.6v19.5l17.7-7.4L138.6,77.5z"/>
<path class="st0" d="M125.5,105c-1.8,0.5-3.3,0.7-5.3,0.7c-11,0-19.9-8.9-19.9-19.9c0-10.8,8.3-19.5,19-19.9l0.1,20.2l6.3,18.8
	L125.5,105z"/>
</svg>
